<svg width="600" height="300" viewBox="0 0 600 300" fill="none" xmlns="http://www.w3.org/2000/svg">
<path fill-rule="evenodd" clip-rule="evenodd" d="M429 264C491.96 264 543 212.96 543 150C543 87.0395 491.96 36 429 36C366.04 36 315 87.0395 315 150C315 212.96 366.04 264 429 264ZM429 224C469.869 224 503 190.869 503 150C503 109.131 469.869 76 429 76C388.131 76 355 109.131 355 150C355 190.869 388.131 224 429 224Z" fill="#F4F2F2"/>
<path d="M400.501 140.818L397.483 159H395.352L387.824 144.724H387.646L385.267 159H383.065L386.084 140.818H388.214L395.778 155.129H395.956L398.335 140.818H400.501ZM407.233 159.284C405.978 159.284 404.928 158.985 404.081 158.387C403.235 157.79 402.637 156.952 402.288 155.875C401.945 154.798 401.889 153.543 402.119 152.111C402.344 150.714 402.791 149.498 403.46 148.462C404.135 147.42 404.972 146.615 405.972 146.047C406.979 145.473 408.085 145.186 409.293 145.186C410.547 145.186 411.595 145.488 412.435 146.092C413.282 146.689 413.88 147.53 414.229 148.613C414.578 149.69 414.637 150.951 414.406 152.395C414.181 153.78 413.729 154.99 413.048 156.026C412.373 157.056 411.536 157.858 410.536 158.432C409.541 159 408.44 159.284 407.233 159.284ZM407.269 157.402C408.227 157.402 409.059 157.156 409.763 156.665C410.473 156.174 411.048 155.526 411.486 154.721C411.929 153.916 412.228 153.046 412.382 152.111C412.524 151.223 412.518 150.397 412.364 149.634C412.211 148.864 411.882 148.246 411.379 147.778C410.876 147.305 410.169 147.068 409.257 147.068C408.298 147.068 407.461 147.317 406.745 147.814C406.035 148.311 405.46 148.965 405.022 149.776C404.584 150.587 404.292 151.46 404.144 152.395C404.002 153.283 404.004 154.108 404.152 154.872C404.306 155.629 404.635 156.242 405.138 156.71C405.647 157.171 406.357 157.402 407.269 157.402ZM428.684 159.284C427.542 159.284 426.583 158.997 425.808 158.423C425.032 157.843 424.485 157.026 424.165 155.973C423.852 154.913 423.813 153.661 424.05 152.217C424.293 150.785 424.745 149.542 425.408 148.489C426.077 147.435 426.897 146.621 427.867 146.047C428.838 145.473 429.897 145.186 431.046 145.186C431.933 145.186 432.611 145.334 433.079 145.63C433.552 145.92 433.895 146.251 434.108 146.624C434.322 146.991 434.484 147.293 434.597 147.53H434.774L435.893 140.818H437.988L434.97 159H432.945L433.301 156.905H433.052C432.857 157.153 432.584 157.467 432.235 157.846C431.886 158.219 431.424 158.553 430.85 158.849C430.282 159.139 429.56 159.284 428.684 159.284ZM429.199 157.402C430.039 157.402 430.791 157.183 431.454 156.745C432.123 156.301 432.679 155.689 433.123 154.907C433.567 154.12 433.875 153.212 434.046 152.182C434.218 151.164 434.212 150.273 434.029 149.51C433.845 148.74 433.493 148.142 432.972 147.716C432.451 147.284 431.762 147.068 430.904 147.068C430.022 147.068 429.255 147.296 428.604 147.752C427.953 148.202 427.423 148.814 427.015 149.589C426.607 150.359 426.323 151.223 426.163 152.182C426.003 153.152 426 154.034 426.154 154.827C426.308 155.615 426.633 156.242 427.131 156.71C427.634 157.171 428.323 157.402 429.199 157.402ZM443.057 159.32C442.193 159.32 441.436 159.157 440.785 158.831C440.134 158.5 439.651 158.023 439.338 157.402C439.024 156.775 438.938 156.017 439.08 155.129C439.216 154.348 439.48 153.715 439.87 153.229C440.261 152.738 440.734 152.353 441.291 152.075C441.853 151.791 442.457 151.581 443.102 151.445C443.753 151.303 444.401 151.193 445.046 151.116C445.886 151.01 446.57 150.927 447.097 150.868C447.624 150.809 448.02 150.711 448.286 150.575C448.553 150.439 448.715 150.205 448.775 149.874V149.803C448.917 148.933 448.801 148.255 448.428 147.77C448.056 147.278 447.39 147.033 446.431 147.033C445.437 147.033 444.605 147.252 443.936 147.69C443.267 148.128 442.773 148.595 442.454 149.092L440.607 148.382C441.092 147.554 441.672 146.908 442.347 146.447C443.022 145.979 443.729 145.654 444.469 145.47C445.209 145.281 445.922 145.186 446.608 145.186C447.046 145.186 447.541 145.239 448.091 145.346C448.642 145.446 449.156 145.657 449.636 145.976C450.121 146.296 450.485 146.778 450.728 147.423C450.976 148.068 451.012 148.933 450.834 150.016L449.343 159H447.248L447.567 157.153H447.461C447.271 157.449 446.981 157.766 446.591 158.103C446.206 158.441 445.718 158.728 445.126 158.964C444.54 159.201 443.85 159.32 443.057 159.32ZM443.661 157.438C444.49 157.438 445.215 157.275 445.836 156.949C446.463 156.624 446.967 156.203 447.345 155.689C447.73 155.174 447.97 154.632 448.064 154.064L448.384 152.146C448.278 152.253 448.067 152.35 447.754 152.439C447.44 152.522 447.085 152.596 446.688 152.661C446.298 152.72 445.916 152.774 445.543 152.821C445.176 152.862 444.88 152.898 444.655 152.928C444.099 152.999 443.569 153.114 443.066 153.274C442.569 153.428 442.149 153.661 441.806 153.975C441.468 154.283 441.258 154.703 441.175 155.236C441.051 155.964 441.226 156.514 441.699 156.887C442.173 157.254 442.827 157.438 443.661 157.438ZM461.37 145.364L461.086 147.139H454.019L454.303 145.364H461.37ZM456.896 142.097H458.991L456.825 155.094C456.73 155.686 456.745 156.129 456.869 156.425C456.999 156.715 457.195 156.911 457.455 157.011C457.721 157.106 458.008 157.153 458.316 157.153C458.547 157.153 458.736 157.142 458.884 157.118C459.032 157.088 459.151 157.065 459.239 157.047L459.381 158.929C459.222 158.982 459.006 159.036 458.733 159.089C458.467 159.148 458.139 159.178 457.748 159.178C457.156 159.178 456.6 159.05 456.079 158.796C455.558 158.541 455.159 158.154 454.88 157.633C454.602 157.112 454.528 156.455 454.658 155.662L456.896 142.097ZM466.226 159.32C465.362 159.32 464.605 159.157 463.954 158.831C463.303 158.5 462.82 158.023 462.506 157.402C462.193 156.775 462.107 156.017 462.249 155.129C462.385 154.348 462.649 153.715 463.039 153.229C463.43 152.738 463.903 152.353 464.46 152.075C465.022 151.791 465.626 151.581 466.271 151.445C466.922 151.303 467.57 151.193 468.215 151.116C469.055 151.01 469.739 150.927 470.266 150.868C470.792 150.809 471.189 150.711 471.455 150.575C471.722 150.439 471.884 150.205 471.944 149.874V149.803C472.086 148.933 471.97 148.255 471.597 147.77C471.225 147.278 470.559 147.033 469.6 147.033C468.606 147.033 467.774 147.252 467.105 147.69C466.436 148.128 465.942 148.595 465.623 149.092L463.776 148.382C464.261 147.554 464.841 146.908 465.516 146.447C466.191 145.979 466.898 145.654 467.638 145.47C468.378 145.281 469.091 145.186 469.777 145.186C470.215 145.186 470.71 145.239 471.26 145.346C471.81 145.446 472.325 145.657 472.805 145.976C473.29 146.296 473.654 146.778 473.897 147.423C474.145 148.068 474.181 148.933 474.003 150.016L472.512 159H470.417L470.736 157.153H470.63C470.44 157.449 470.15 157.766 469.76 158.103C469.375 158.441 468.887 158.728 468.295 158.964C467.709 159.201 467.019 159.32 466.226 159.32ZM466.83 157.438C467.659 157.438 468.384 157.275 469.005 156.949C469.632 156.624 470.136 156.203 470.514 155.689C470.899 155.174 471.139 154.632 471.233 154.064L471.553 152.146C471.446 152.253 471.236 152.35 470.923 152.439C470.609 152.522 470.254 152.596 469.857 152.661C469.467 152.72 469.085 152.774 468.712 152.821C468.345 152.862 468.049 152.898 467.824 152.928C467.268 152.999 466.738 153.114 466.235 153.274C465.738 153.428 465.318 153.661 464.975 153.975C464.637 154.283 464.427 154.703 464.344 155.236C464.22 155.964 464.395 156.514 464.868 156.887C465.341 157.254 465.995 157.438 466.83 157.438Z" fill="#969696"/>
</svg>
