<svg width="600" height="300" viewBox="0 0 600 300" fill="none" xmlns="http://www.w3.org/2000/svg">
<rect x="50" y="69" width="46" height="162" rx="23" fill="#F4F2F2"/>
<rect x="506" y="69" width="46" height="162" rx="23" fill="#F4F2F2"/>
<rect x="430" y="69" width="46" height="162" rx="23" fill="#F4F2F2"/>
<rect x="354" y="69" width="46" height="162" rx="23" fill="#F4F2F2"/>
<rect x="278" y="69" width="46" height="162" rx="23" fill="#F4F2F2"/>
<rect x="202" y="69" width="46" height="162" rx="23" fill="#F4F2F2"/>
<rect x="126" y="69" width="46" height="162" rx="23" fill="#F4F2F2"/>
<rect x="50" y="147" width="46" height="84" rx="23" fill="#EF3309"/>
<rect x="506" y="169" width="46" height="62" rx="23" fill="#EF3309"/>
<rect x="430" y="133" width="46" height="98" rx="23" fill="#EF3309"/>
<rect x="354" y="98" width="46" height="133" rx="23" fill="#EF3309"/>
<rect x="278" y="147" width="46" height="84" rx="23" fill="#EF3309"/>
<rect x="202" y="169" width="46" height="62" rx="23" fill="#EF3309"/>
<rect x="126" y="133" width="46" height="98" rx="23" fill="#EF3309"/>
</svg>
