<?xml version="1.0" encoding="UTF-8"?><svg id="Calque_2" xmlns="http://www.w3.org/2000/svg" xmlns:xlink="http://www.w3.org/1999/xlink" viewBox="0 0 305.46 100.02"><defs><style>.cls-1{fill:none;}.cls-1,.cls-2,.cls-3{stroke-width:0px;}.cls-4{stroke:#ea0311;stroke-linecap:round;stroke-linejoin:bevel;stroke-width:4px;}.cls-4,.cls-3{fill:#ea0311;}.cls-2{fill:#fff;}.cls-5{clip-path:url(#clippath);}</style><clipPath id="clippath"><path class="cls-1" d="M.1,17.53v82.76h99.66V17.53H.1ZM62.85,44.05l-2.35-3.91c2.4-3.67,5.68-6.43,9.54-7.94l-7.18,11.86ZM89.49,49.95h-19.01v-10.8h2.88v-7.94c1.24-.24,2.51-.36,3.79-.36,2.52,0,5.1.46,7.69,1.36.58.2,1.14.44,1.7.69v6.25h2.95v10.8Z"/></clipPath></defs><g id="Calque_1-2"><path class="cls-3" d="M206.48,77.05c0,5.66-4.48,10.26-11.28,10.26h-21.31v6.08h-8.36v-26.6h29.67c6.8,0,11.28,4.6,11.28,10.26ZM198.12,77.05c0-1.63-1.33-2.93-2.93-2.93h-21.31v5.85h21.31c1.6,0,2.93-1.29,2.93-2.93Z"/><path class="cls-3" d="M209.53,66.8h29.67c6.8,0,11.28,4.6,11.28,10.26,0,3.99-2.24,7.45-5.93,9.16l4.71,7.18h-9.69l-3.61-6.08h-18.05v6.08h-8.4v-26.6ZM239.2,79.98c1.6,0,2.93-1.29,2.93-2.93s-1.33-2.93-2.93-2.93h-21.28v5.85h21.28Z"/><path class="cls-3" d="M297.45,80.09c0,8.24-6.08,13.75-14.59,13.75h-15.2c-8.32,0-14.59-5.51-14.59-13.75s6.08-13.75,14.59-13.75h15.2c8.51,0,14.59,5.55,14.59,13.75ZM288.94,80.09c0-3.34-2.47-5.97-6.08-5.97h-15.2c-3.61,0-6.08,2.62-6.08,5.97s2.47,5.96,6.08,5.96h15.2c3.61,0,6.08-2.58,6.08-5.96Z"/><path class="cls-2" d="M62.85,44.05l-10.44-17.35v12.46h2.88v10.8h-18.94v-10.8h2.88V12.8h-2.88V2h15.41l11.09,18.65,11.16-18.65h15.48v10.8h-2.95v26.35h2.95v10.8h-19.01v-10.8h2.88v-12.46l-10.51,17.35Z"/><path class="cls-2" d="M132.83,42.26l-7.7,7.69h-21.1l-7.7-7.69V12.8h-2.88V2h18.94v10.8h-2.88v24.77l1.58,1.58h6.98l1.58-1.58V12.8h-2.95V2h19.01v10.8h-2.88v29.46Z"/><path class="cls-2" d="M160.55,31.45h-14.04l-7.78-7.61v-14.15l7.7-7.69h21.1l7.7,7.67v9.46h-13.18v-4.77l-1.58-1.57h-6.98l-1.58,1.57v4.78l1.58,1.5h14.04l7.7,7.7v13.9l-7.7,7.7h-21.1l-7.7-7.7v-9.22h13.18v4.54l1.58,1.58h6.98l1.58-1.58v-4.54l-1.51-1.58Z"/><path class="cls-2" d="M215.77,20.36h-13.18v-5.99l-1.58-1.57h-6.98l-1.58,1.58v23.19l1.58,1.58h6.98l1.58-1.58v-5.76h13.18v10.44l-7.7,7.7h-21.1l-7.7-7.69V9.69l7.7-7.69h21.1l7.7,7.67v10.69Z"/><path class="cls-2" d="M235.72,12.8v26.35h8.64v-2.88h10.8v13.68h-35.5v-10.8h2.88V12.8h-2.88V2h18.94v10.8h-2.88Z"/><path class="cls-2" d="M274.23,39.15h8.42v-1.94h10.8v12.74h-35.28v-10.8h2.88V12.8h-2.88V2h35.28v12.74h-10.8v-1.94h-8.42v7.78h1.94v-1.87h10.8v14.62h-10.8v-1.94h-1.94v7.78Z"/><path class="cls-4" d="M303.46,24.74v-12.74h-2v-2h-2v-2h-2v-2h-2v-2h-2v-2h-35.28v10.8h2v2h.88v24.35h-2.88v1.12h-1.02v-2h-2v-2h-9.44v-13.47h2.88v-10.8h-2v-2h-2v-2h-2v-2h-2v-2h-2v-2h-18.94v10.8h2v2h.88v1.65l-.77-.76h0s-2-2-2-2h0s-2-2-2-2h0s-2-2-2-2h0s-7.7-7.68-7.7-7.68h-21.1l-7.7,7.69v4.02l-.03-.03h0s-2-2-2-2h0s-2-2-2-2h0s-7.7-7.68-7.7-7.68h-21.1l-6.01,6h-.71v-2h-2v-2h-2v-2h-19.01v6h-.32v-2h-2v-2h-2v-2h-18.94v4h-1.96v-2h-2v-2h-15.48l-9.13,15.25-3.12-5.25h-.81l-1.19-2h-.81l-1.19-2h-.81l-1.19-2h-.81l-1.19-2h-.81l-1.19-2h-15.41v10.8h2v2h.88v24.35h-2.88v10.8h2v2h2v2h2v2h2v2h2v2h18.94v-10.8h-2v-2h-.88v-3.84l.44.73.4-.66,1.6,2.66.4-.66,1.6,2.66.4-.66,1.6,2.66.4-.66,1.6,2.66.4-.66,1.6,2.66,1.27-2.1h.36v2h2v2h2v2h2v2h19.01v-10.8h-2v-2h-.95v-4.68l1.79,1.79h0s2,2,2,2h0s2,2,2,2h0s2,2,2,2h0s2,2,2,2h0s7.7,7.69,7.7,7.69h21.1l7.7-7.69v-5.92l1.9,1.9,1.7,1.7.3.3,1.7,1.7.3.3,1.7,1.7,2,2,2,2,2,2h21.1l7.7-7.7v-4.02l.03.03h0s2,2,2,2h0s2,2,2,2h0s7.7,7.7,7.7,7.7h21.1l6-6h1.59v2h2v2h2v2h35.5v-4h1.02v2h2v2h35.28v-12.74h-2v-2h-2v-2h-2v-2h-.48v-12.5h-2v-2h-2v-1.96h10.48ZM222.54,30.36v8.79h-.77v-1.34h-2v-2h-2v-2h-2v-2h-13.18v5.76l-.15.15v-13.34l1.58-1.58h2.57v1.56h2v2h2v2h2v2h9.94ZM119.65,37.57l-.15.15v-14.92h.15v14.77ZM142.83,27.93l1.9,1.86v.04l2,1.96v.04l1.22,1.2h-5.13v-5.1ZM177.24,30.35l-1.22-1.22h3.25v3.25l-.03-.03-1.7-1.7-.3-.3ZM290.98,22.8h1.68v1.9h-1.68v-1.9Z"/><path class="cls-2" d="M97.76,49.13v9.46c-2.91,6.55-7.2,11.76-14.25,14.23-1.45.5-1.68,1.66-2.17,2.84-8.24,19.15-20.43,25.57-40.99,21.43-3.1-.63-6.06-.71-8.86.53-3.08,1.36-5.5.49-7.96-1.28-8.45-6.05-13.68-14.18-16.72-24.03-1.88-6.09-2.04-12.58-4.7-18.44v-18.95c2.05-5.4,5.38-9.84,10.15-13.22,7.06-5.02,16.98-.81,19.56,7.44,1.17,3.76-1.42,3.95-3.92,6.19-3.16,2.83-5.56,6.25-10.28,2.4-.59-.48-4.42.72-2.24,1.43.48.15-.55,2.75-.37,3.28,1.44,4.26,5.35,8.85,8.6,11.96,3.1,2.97,6.15,6.73,8.6,10.84,4.03-9.45,12.21-15.47,22.13-13.73,2.55.45,3.41-1.89,3.65-2.9,3.08-12.83,14.03-19.81,26.54-15.44,7.66,2.68,10.88,8.98,13.26,15.97Z"/><path class="cls-2" d="M62.85,44.05l-10.44-17.35v12.46h2.88v10.8h-18.94v-10.8h2.88V12.8h-2.88V2h15.41l11.09,18.65,11.16-18.65h15.48v10.8h-2.95v26.35h2.95v10.8h-19.01v-10.8h2.88v-12.46l-10.51,17.35Z"/><path class="cls-2" d="M132.83,42.26l-7.7,7.69h-21.1l-7.7-7.69V12.8h-2.88V2h18.94v10.8h-2.88v24.77l1.58,1.58h6.98l1.58-1.58V12.8h-2.95V2h19.01v10.8h-2.88v29.46Z"/><path class="cls-2" d="M160.55,31.45h-14.04l-7.78-7.61v-14.15l7.7-7.69h21.1l7.7,7.67v9.46h-13.18v-4.77l-1.58-1.57h-6.98l-1.58,1.57v4.78l1.58,1.5h14.04l7.7,7.7v13.9l-7.7,7.7h-21.1l-7.7-7.7v-9.22h13.18v4.54l1.58,1.58h6.98l1.58-1.58v-4.54l-1.51-1.58Z"/><path class="cls-2" d="M215.77,20.36h-13.18v-5.99l-1.58-1.57h-6.98l-1.58,1.58v23.19l1.58,1.58h6.98l1.58-1.58v-5.76h13.18v10.44l-7.7,7.7h-21.1l-7.7-7.69V9.69l7.7-7.69h21.1l7.7,7.67v10.69Z"/><path class="cls-2" d="M235.72,12.8v26.35h8.64v-2.88h10.8v13.68h-35.5v-10.8h2.88V12.8h-2.88V2h18.94v10.8h-2.88Z"/><path class="cls-2" d="M274.23,39.15h8.42v-1.94h10.8v12.74h-35.28v-10.8h2.88V12.8h-2.88V2h35.28v12.74h-10.8v-1.94h-8.42v7.78h1.94v-1.87h10.8v14.62h-10.8v-1.94h-1.94v7.78Z"/><g class="cls-5"><path class="cls-2" d="M97.76,49.13v9.46c-2.91,6.55-7.2,11.76-14.25,14.23-1.45.5-1.68,1.66-2.17,2.84-8.24,19.15-20.43,25.57-40.99,21.43-3.1-.63-6.06-.71-8.86.53-3.08,1.36-5.5.49-7.96-1.28-8.45-6.05-13.68-14.18-16.72-24.03-1.88-6.09-2.04-12.58-4.7-18.44v-18.95c2.05-5.4,5.38-9.84,10.15-13.22,7.06-5.02,16.98-.81,19.56,7.44,1.17,3.76-1.42,3.95-3.92,6.19-3.16,2.83-5.56,6.25-10.28,2.4-.59-.48-4.42.72-2.24,1.43.48.15-.55,2.75-.37,3.28,1.44,4.26,5.35,8.85,8.6,11.96,3.1,2.97,6.15,6.73,8.6,10.84,4.03-9.45,12.21-15.47,22.13-13.73,2.55.45,3.41-1.89,3.65-2.9,3.08-12.83,14.03-19.81,26.54-15.44,7.66,2.68,10.88,8.98,13.26,15.97Z"/></g><path class="cls-3" d="M86.02,32.03c-13.06-4.57-26.35,2.73-29.57,16.12-.25,1.05.71,3.49-1.95,3.02-10.36-1.82-17.65,2.05-21.86,11.91-2.55-4.29-5.46-7.64-8.7-10.74-3.39-3.25-5.9-7.08-7.4-11.53-.18-.55-.29-1.33-.04-1.79.36-.62,1.03-.51,1.65-.01,4.92,4.02,8.17.37,11.47-2.58,2.61-2.34,5.21-4.92,3.99-8.84-2.69-8.62-15.65-12.77-23.02-7.53-4.97,3.53-8.45,8.16-10.59,13.8v19.78c2.78,6.12,2.95,12.89,4.91,19.25,3.17,10.28,8.63,18.76,17.45,25.08,2.57,1.85,5.09,2.76,8.31,1.34,2.92-1.29,6.01-1.21,9.25-.55,21.46,4.32,34.19-2.38,42.79-22.37.52-1.23.76-2.44,2.27-2.96.41-.14.81-.29,1.2-.45,8.41-3.44,13.68-11.89,13.68-20.98v-3.29c-2.48-7.3-5.84-13.87-13.84-16.67ZM87.23,67.6c-5.09,2.55-7.84,5.94-10.1,10.97-6.33,14.06-17.37,19.44-32.74,16.77-5.25-.91-10.48-2.06-15.64.29-1.92.87-3.19-.33-4.47-1.3-6.06-4.56-10.79-10.1-13.52-17.29-4.31-11.37-6.21-23.14-6.81-36.85-.95-6.88,2.84-12.96,9.94-17.35,4.46-2.76,14.17.32,15.33,5.37.86,3.78-2.92,5.48-5.51,7.52-2.13,1.69-3.1,1.12-3.84-1.28-.45-1.45-1.72-2.16-3.12-1.04-2.34,1.89-5.76,3.18-4.52,7.3,1.75,5.81,4.88,10.78,9.3,14.94,4.15,3.89,7.53,8.28,9.7,13.57.57,1.41.95,3.58,3.22,3.03,1.83-.44,1.41-2.32,1.6-3.75,1.28-9.8,6.8-14.42,15.85-13.91,2.58.15,4.87,3.45,7.29,1.19,1.86-1.73.55-4.71,1.12-7.1,1.95-8.19,8.32-13.38,17.19-13.77,8.44-.37,14.95,4.13,17.29,11.95,2.74,9.15.46,16.72-7.56,20.74Z"/></g></svg>